<?xml version="1.0" encoding="UTF-8" standalone="no"?>
<!-- Svg Vector Icons : http://www.onlinewebfonts.com/icon -->

<svg
   version="1.1"
   x="0px"
   y="0px"
   viewBox="0 0 396.8504 559.37009"
   enable-background="new 0 0 256 256"
   xml:space="preserve"
   id="svg8"
   sodipodi:docname="barley.svg"
   width="105mm"
   height="148mm"
   inkscape:version="1.1.2 (0a00cf5339, 2022-02-04)"
   xmlns:inkscape="http://www.inkscape.org/namespaces/inkscape"
   xmlns:sodipodi="http://sodipodi.sourceforge.net/DTD/sodipodi-0.dtd"
   xmlns:xlink="http://www.w3.org/1999/xlink"
   xmlns="http://www.w3.org/2000/svg"
   xmlns:svg="http://www.w3.org/2000/svg"><defs
   id="defs12"><linearGradient
     inkscape:collect="always"
     id="linearGradient31263"><stop
       style="stop-color:#d4aa00;stop-opacity:1"
       offset="0"
       id="stop31259" /><stop
       style="stop-color:#a02c2c;stop-opacity:1"
       offset="1"
       id="stop31261" /></linearGradient><linearGradient
     inkscape:collect="always"
     xlink:href="#linearGradient31263"
     id="linearGradient31265"
     x1="43.347477"
     y1="66.148613"
     x2="54.228539"
     y2="158.04076"
     gradientUnits="userSpaceOnUse"
     gradientTransform="translate(2)" /></defs><sodipodi:namedview
   id="namedview10"
   pagecolor="#ffffff"
   bordercolor="#666666"
   borderopacity="1.0"
   inkscape:pageshadow="2"
   inkscape:pageopacity="0.0"
   inkscape:pagecheckerboard="0"
   showgrid="false"
   units="mm"
   inkscape:zoom="2.0385881"
   inkscape:cx="478.76273"
   inkscape:cy="122.6339"
   inkscape:window-width="1896"
   inkscape:window-height="1016"
   inkscape:window-x="12"
   inkscape:window-y="12"
   inkscape:window-maximized="1"
   inkscape:current-layer="g6"
   inkscape:document-units="mm" />
<metadata
   id="metadata2"> Svg Vector Icons : http://www.onlinewebfonts.com/icon </metadata>
<g
   id="g6"> <g
   id="g56753"
   transform="matrix(1.3588319,0,0,1.3588319,-109.13609,-49.020176)"
   inkscape:export-filename="/home/cedric/dev/moskitohero/barley/img/barley.png"
   inkscape:export-xdpi="71.578949"
   inkscape:export-ydpi="71.578949"><path
     fill="#000000"
     d="m 66.2661,121.14844 c -0.28737,-0.63523 -1.14484,-1.27064 -2.42206,-1.92383 -1.31683,-0.67091 -1.50484,-2.27634 -0.39092,-2.96399 6.99186,-4.28462 12.38512,-12.66277 11.30744,-15.04482 -0.81422,-1.79976 -6.64199,-3.971734 -13.08234,-4.767824 -1.44173,-0.176913 -2.25519,-1.76497 -1.41963,-2.787923 0.73311,-0.899497 1.36294,-1.887244 1.83415,-2.945596 C 66.89912,79.919154 61.4405,68.273525 58.18878,66.825768 54.8181,65.325043 42.56732,69.255026 37.82376,79.909213 c -0.4712,1.058351 -0.7838,2.187346 -0.96172,3.334023 -0.20109,1.305437 -1.96521,1.745886 -3.02174,0.810497 -4.90104,-4.253418 -10.41467,-7.13096 -12.29698,-6.531772 -2.4913,0.793037 -5.10869,10.407078 -3.61433,18.470006 0.21865,1.323221 -1.10025,2.257801 -2.46425,1.692786 -1.34005,-0.512018 -2.42566,-0.741796 -3.05036,-0.512646 -2.98956,0.951637 -6.14661,14.552593 -2.29097,23.075013 1.17346,2.59377 3.10627,4.97614 5.29119,7.0057 4.52388,3.57572 4.26797,3.27945 9.07976,5.86027 1.00704,0.40622 1.52569,1.48246 1.13302,2.36442 l -5.49749,12.34757 c -0.37697,0.84668 0.102,1.90538 1.05372,2.32911 0.95172,0.42374 2.05897,0.0713 2.43594,-0.77542 l 5.48178,-12.31227 c 0.39267,-0.88197 1.52388,-1.18152 2.4756,-0.75778 0.93598,0.45909 4.74905,1.53513 4.74905,1.53513 3.39763,0.92669 2.04683,0.56423 5.68153,1.29118 2.97026,0.26565 6.01828,0.14319 8.74673,-0.75563 8.82579,-2.96084 16.80507,-14.37252 15.51186,-17.23096 z m 5.13306,-18.8929 c 0.81424,1.79977 -6.38356,10.38899 -13.58065,12.67999 -7.15744,2.30866 -16.94016,-0.90552 -17.73045,-2.65236 -0.0479,-0.10593 -0.0801,-0.24702 -0.0966,-0.42345 0.69267,-1.12886 1.33666,-2.57529 1.8609,-4.28638 1.94566,-2.76915 5.26787,-5.85537 9.38039,-7.19476 7.19709,-2.291004 19.3761,0.13012 20.16637,1.87696 z M 56.81403,69.80681 c 2.06205,0.918086 5.60588,10.78121 1.80476,19.318668 -2.90582,6.526561 -12.15956,9.381418 -14.18196,8.480986 C 42.29544,96.653057 38.34401,87.918878 41.24982,81.392315 45.17659,72.572628 54.7916,68.906367 56.81403,69.80681 Z M 22.94055,80.680373 c 1.88232,-0.599195 11.79125,6.813862 14.90449,13.695329 3.0736,6.863808 0.54814,15.631058 -1.38956,16.247868 -1.82693,0.58155 -10.7218,-4.52004 -13.83506,-11.401517 -3.12896,-6.846182 -1.52253,-17.924839 0.32013,-18.54168 z m 4.5933,49.981527 c -1.88231,0.59917 -10.84078,-4.57301 -14.01764,-11.52507 -3.13719,-6.93441 -1.56296,-18.1542 0.31936,-18.75339 1.88232,-0.599201 11.93416,6.91976 15.07136,13.85415 1.65242,3.65248 1.73898,7.83367 1.16479,11.04435 l -2.35607,5.29181 c -0.0553,0.0175 -0.1661,0.0529 -0.1818,0.0882 z m 21.5927,4.32967 C 41.8741,137.3002 32.01207,134.0507 31.18213,132.28622 l -0.0718,-0.15881 0.70682,-1.58755 0.39268,-0.88197 1.25657,-2.8223 c 2.01749,-2.61034 5.16694,-5.30849 8.98694,-6.52449 7.25246,-2.30861 19.56613,0.13019 20.38036,1.92997 0.82994,1.76448 -6.45464,10.44187 -13.7071,12.7505 z"
     id="path4"
     sodipodi:nodetypes="sccsccsssccscccsccsssssccccsscscccssssssccsccccsscccscccccscs"
     style="fill:url(#linearGradient31265);fill-opacity:1;stroke-width:0.409428" /><path
     d="m 111.32426,133.73869 q -5.28,0 -10.464,-1.248 -5.183999,-1.248 -9.599999,-4.128 V 62.410688 h 6.24 v 30.528 q 0.96,-2.4 2.591999,-4.512 1.632,-2.112 3.84,-3.552 2.208,-1.44 4.8,-2.016 2.592,-0.576 5.28,-0.576 2.592,0 5.184,0.576 2.592,0.576 4.8,2.016 2.208,1.44 3.84,3.552 1.632,2.016 2.592,4.512 0.96,2.4 1.344,5.088 0.384,2.592002 0.384,5.184002 v 9.6 q 0,2.784 -0.48,5.568 -0.48,2.784 -1.728,5.28 -1.248,2.496 -3.264,4.512 -2.016,2.016 -4.512,3.36 -2.496,1.248 -5.28,1.728 -2.784,0.48 -5.568,0.48 z m 0,-5.568 q 2.016,0 4.032,-0.384 2.016,-0.384 3.744,-1.344 1.728,-0.96 3.072,-2.4 1.44,-1.536 2.304,-3.36 0.864,-1.824 1.152,-3.84 0.288,-2.016 0.288,-4.032 v -9.6 q 0,-2.016 -0.288,-3.936002 -0.288,-2.016 -1.152,-3.84 -0.768,-1.824 -2.112,-3.264 -1.248,-1.536 -2.976,-2.496 -1.728,-1.056 -3.744,-1.44 -1.92,-0.384 -3.936,-0.384 -2.016,0 -4.032,0.384 -1.92,0.384 -3.648,1.44 -1.728,0.96 -3.072,2.496 -1.247999,1.44 -2.111999,3.264 -0.768,1.824 -1.056,3.84 -0.288,1.920002 -0.288,3.936002 v 22.176 q 3.167999,1.536 6.719999,2.208 3.552,0.576 7.104,0.576 z"
     style="font-weight:300;font-size:96px;line-height:1.25;font-family:'Iosevka Aile';-inkscape-font-specification:'Iosevka Aile, Light';font-feature-settings:'ss07';letter-spacing:-6px;fill:#806600"
     id="path56709" /><path
     d="m 160.23611,133.73869 q -2.592,0 -5.184,-0.576 -2.592,-0.576 -4.8,-2.016 -2.208,-1.44 -3.84,-3.456 -1.632,-2.112 -2.592,-4.512 -0.96,-2.496 -1.344,-5.088 -0.384,-2.688 -0.384,-5.28 v -9.6 q 0,-2.784 0.48,-5.568002 0.48,-2.784 1.728,-5.28 1.248,-2.496 3.264,-4.512 2.016,-2.016 4.512,-3.264 2.496,-1.344 5.28,-1.824 2.784,-0.48 5.568,-0.48 5.28,0 10.464,1.248 5.184,1.248 9.6,4.128 v 45.312002 h -6.24 v -9.888 q -0.96,2.4 -2.592,4.512 -1.632,2.112 -3.84,3.552 -2.208,1.44 -4.8,2.016 -2.592,0.576 -5.28,0.576 z m 2.304,-5.568 q 2.016,0 3.936,-0.384 2.016,-0.384 3.744,-1.344 1.728,-1.056 2.976,-2.496 1.344,-1.536 2.112,-3.36 0.864,-1.824 1.152,-3.744 0.288,-2.016 0.288,-4.032 V 90.634688 q -3.168,-1.536 -6.72,-2.112 -3.552,-0.672 -7.104,-0.672 -2.016,0 -4.032,0.384 -2.016,0.384 -3.744,1.344 -1.728,0.96 -3.168,2.496 -1.344,1.44 -2.208,3.264 -0.864,1.824 -1.152,3.84 -0.288,2.016002 -0.288,4.032002 v 9.6 q 0,2.016 0.288,4.032 0.288,1.92 1.056,3.744 0.864,1.824 2.112,3.36 1.344,1.44 3.072,2.496 1.728,0.96 3.648,1.344 2.016,0.384 4.032,0.384 z"
     style="font-weight:300;font-size:96px;line-height:1.25;font-family:'Iosevka Aile';-inkscape-font-specification:'Iosevka Aile, Light';font-feature-settings:'ss07';letter-spacing:-6px;fill:#806600"
     id="path56711" /><path
     d="M 198.58797,132.97069 V 83.050688 h 6.24 v 14.016 q 1.536,-3.456 4.224,-6.144 2.688,-2.784 6.048,-4.416 3.36,-1.728 7.008,-2.496 3.744,-0.864 7.584,-0.96 h 5.76 v 13.92 h -5.76 v -8.352 q -2.208,0.096 -4.32,0.384 -2.112,0.192 -4.224,0.672 -2.016,0.48 -4.128,1.248 -2.016,0.672 -3.84,1.728 -1.824,1.056 -3.456,2.496 -1.632,1.44 -2.784,3.264 -1.152,1.728002 -1.632,3.840002 -0.48,2.112 -0.48,4.224 v 26.496 z"
     style="font-weight:300;font-size:96px;line-height:1.25;font-family:'Iosevka Aile';-inkscape-font-specification:'Iosevka Aile, Light';font-feature-settings:'ss07';letter-spacing:-6px;fill:#806600"
     id="path56713" /><path
     d="M 253.45182,132.97069 V 67.978688 h -9.792 v -5.568 h 15.936 v 64.992002 h 9.792 v 5.568 z"
     style="font-weight:300;font-size:96px;line-height:1.25;font-family:'Iosevka Aile';-inkscape-font-specification:'Iosevka Aile, Light';font-feature-settings:'ss07';letter-spacing:-6px;fill:#806600"
     id="path56715" /><path
     d="m 298.61979,133.73869 q -2.88,0 -5.664,-0.48 -2.784,-0.48 -5.28,-1.728 -2.496,-1.248 -4.512,-3.264 -2.016,-2.112 -3.264,-4.608 -1.248,-2.496 -1.728,-5.28 -0.48,-2.784 -0.48,-5.568 v -9.6 q 0,-2.784 0.48,-5.568002 0.48,-2.784 1.728,-5.28 1.248,-2.496 3.264,-4.512 2.016,-2.016 4.512,-3.264 2.496,-1.344 5.28,-1.824 2.784,-0.48 5.568,-0.48 2.784,0 5.568,0.48 2.784,0.48 5.28,1.824 2.496,1.248 4.512,3.264 2.016,2.016 3.264,4.512 1.248,2.496 1.728,5.28 0.48,2.784002 0.48,5.568002 v 7.584 h -35.52 v 2.016 q 0,2.016 0.288,4.032 0.384,2.016 1.248,3.84 0.864,1.824 2.208,3.36 1.44,1.44 3.168,2.4 1.824,0.96 3.84,1.344 2.016,0.384 4.032,0.384 1.536,0 3.072,-0.096 1.536,-0.096 3.072,-0.48 1.536,-0.384 2.88,-1.056 1.44,-0.672 2.592,-1.632 1.248,-1.056 1.92,-2.4 0.768,-1.44 0.864,-3.072 h 6.144 q -0.096,2.4 -1.056,4.608 -0.864,2.112 -2.496,3.84 -1.536,1.728 -3.552,2.88 -2.016,1.152 -4.32,1.824 -2.208,0.672 -4.512,0.864 -2.304,0.288 -4.608,0.288 z m -14.784,-28.512 h 29.376 v -2.016 q 0,-2.016 -0.384,-4.032002 -0.288,-2.016 -1.152,-3.84 -0.864,-1.824 -2.208,-3.264 -1.344,-1.536 -3.168,-2.496 -1.728,-0.96 -3.744,-1.344 -2.016,-0.384 -4.032,-0.384 -2.016,0 -4.032,0.384 -2.016,0.384 -3.84,1.344 -1.728,0.96 -3.072,2.496 -1.344,1.44 -2.208,3.264 -0.864,1.824 -1.248,3.84 -0.288,2.016002 -0.288,4.032002 z"
     style="font-weight:300;font-size:96px;line-height:1.25;font-family:'Iosevka Aile';-inkscape-font-specification:'Iosevka Aile, Light';font-feature-settings:'ss07';letter-spacing:-6px;fill:#806600"
     id="path56717" /><path
     d="m 331.78764,153.61069 v -5.568 h 4.416 q 1.344,0 2.688,-0.384 1.344,-0.288 2.304,-1.248 0.96,-0.864 1.536,-2.112 0.576,-1.248 1.056,-2.496 v -0.096 h 0.096 l 2.976,-8.16 -18.528,-50.496002 h 6.528 l 15.264,43.104002 15.264,-43.104002 h 6.528 l -22.272,60.576002 q -0.768,2.112 -1.824,4.128 -1.056,2.112 -2.88,3.552 -1.824,1.44 -4.128,1.824 -2.304,0.48 -4.608,0.48 z"
     style="font-weight:300;font-size:96px;line-height:1.25;font-family:'Iosevka Aile';-inkscape-font-specification:'Iosevka Aile, Light';font-feature-settings:'ss07';letter-spacing:-6px;fill:#806600"
     id="path56719" /></g></g>
</svg>
